PathFileType	4	(X/Y/Z)	57_1_29_p1_0-238_filt_butterworth.trc
DataRate	CameraRate	NumFrames	NumMarkers	Units	OrigDataRate	OrigDataStartFrame	OrigNumFrames
60.0	60.0	5	27	m	60.0	29	238
Frame#	Time	RHip			RKnee			RAnkle			RBigToe			RSmallToe			RHeel			LHip			LKnee			LAnkle			LBigToe			LSmallToe			LHeel			Neck			Head			Nose			RShoulder			RElbow			RWrist			RThumb			RIndex			RPinky			LShoulder			LElbow			LWrist			LThumb			LIndex			LPinky			
		X1	Y1	Z1	X2	Y2	Z2	X3	Y3	Z3	X4	Y4	Z4	X5	Y5	Z5	X6	Y6	Z6	X7	Y7	Z7	X8	Y8	Z8	X9	Y9	Z9	X10	Y10	Z10	X11	Y11	Z11	X12	Y12	Z12	X13	Y13	Z13	X14	Y14	Z14	X15	Y15	Z15	X16	Y16	Z16	X17	Y17	Z17	X18	Y18	Z18	X19	Y19	Z19	X20	Y20	Z20	X21	Y21	Z21	X22	Y22	Z22	X23	Y23	Z23	X24	Y24	Z24	X25	Y25	Z25	X26	Y26	Z26	X27	Y27	Z27	
29	0.4833333333333333	0.2494190879164307	0.5676014813237511	0.97434475342173	0.24337313707734262	0.6831815965179908	1.3588773334569644	0.2483110130770483	0.8494834920747589	1.757358537722049	0.23191211715125604	0.6649006033753696	1.8042219944787357	0.30017789042004495	0.7075366667971129	1.8035346658932057	0.23554960201339714	0.9642941290004312	1.8152354799799033	0.030803589235813562	0.6016469413921794	0.9889618334508268	0.03755897658530285	0.7145955730543535	1.3732175252199377	0.0735393578224163	0.890114446441659	1.7760721182594439	0.07929026161388955	0.6691096465735374	1.8021533305771222	0.028640003776405125	0.7469019407549562	1.8166699182448667	0.0931310431294111	0.9347372062837158	1.8216975849754067	0.12324211380320506	0.41470951512540477	0.4398741052470135	0.1249091548009418	0.28321264232521565	0.22216222753230702	0.11381321787335662	0.23636315391387439	0.36463729786224874	0.2837398397970137	0.40186225180313595	0.5185618828600792	0.31726715279976536	0.46915009491017945	0.7813828776257329	0.1815524087372707	0.4534971169267544	0.9921759730410654	0.1256413672762875	0.4194920648118806	1.0709878792290215	0.12612456461556742	0.44947849106003146	1.0905870406718616	0.13418089486827006	0.46558547669648315	1.08842450416347	-0.0326337316264586	0.4110700986115485	0.5276884932500713	-0.033166415822636054	0.45016143067445513	0.7917733544614665	0.05267936731860422	0.4181176815352433	0.9809792775556884	0.13471397190476347	0.410711566545113	1.0453940936452206	0.13380925032769794	0.43138935870709927	1.0827349970506261	0.10849169898092577	0.4717945862114807	1.0848747578727613
30	0.5	0.24939352438784396	0.5676118120271376	0.9742732577997851	0.2437152850858129	0.6832092333863387	1.358759258740518	0.24833131969367142	0.849510603032508	1.7573295171893728	0.23190890812834333	0.6649360213734037	1.8042359672191446	0.3011318711611691	0.7080932961821002	1.8036971004365774	0.2354062776243651	0.9645925137924991	1.8135712137246165	0.030862333654799286	0.6015687200195786	0.9888174784987411	0.03860586907572299	0.7148918299950962	1.373199470660075	0.07350960712608794	0.8900959707417562	1.7760670504941025	0.07842665448425086	0.6721006943647332	1.8023454608673894	0.028610012322785372	0.7469773391477451	1.8167711704570573	0.09318259617047941	0.9350467356128622	1.821671118027373	0.12325065039739569	0.414701967127553	0.43987094206731664	0.12491341003096704	0.28320094844163624	0.22215867356427865	0.11382259257753446	0.23642034429970257	0.36463610846033095	0.2837626628610858	0.4017947758294915	0.5194308192269644	0.31823495952222114	0.4655468817557485	0.7813521332487499	0.18074937258188006	0.4525876555307732	0.9922500082641654	0.12571586056324763	0.41946759051643456	1.0718190753211279	0.12526394948318187	0.4491912427010863	1.0905446949783637	0.13424567848453384	0.4657917519472892	1.089321098611097	-0.03269394765688818	0.410973834400352	0.5276995685355822	-0.03319985118207699	0.45017179890827796	0.7917469707269853	0.05170340724775457	0.41617908248572644	0.9809408813259576	0.13426037214993763	0.4103125501371876	1.04383959457668	0.13328351808710615	0.42822570974794905	1.0833584415545936	0.10770759643658939	0.4673730881329674	1.085159092326602
31	0.5166666666666667	0.2493933097858637	0.5674778845525446	0.9742392668658177	0.24376812406731885	0.6830957197438817	1.358634434002556	0.24833922746108145	0.8495910576927422	1.7573182501964202	0.23191696715350935	0.6649696987352001	1.8042475749962752	0.30275328225394244	0.7080687601646404	1.8037218207474939	0.235315830462134	0.964931224458605	1.8118192400860826	0.031322238267359144	0.601493384631717	0.9885605363013636	0.040118605195489924	0.7153048167980586	1.3739024490602239	0.07338501691592836	0.8898992430405778	1.7759670264919962	0.07778161993443398	0.6740352758054879	1.802262170161028	0.028598368670115712	0.7468697819625614	1.8168117912192003	0.09316404933165229	0.9353998117766007	1.8217085397354753	0.12324531262522812	0.4147025850299391	0.4398512421797238	0.12491477052557962	0.28318394171507555	0.22215913557834596	0.11393870541393379	0.236889067044091	0.3646206947664459	0.2837559721690028	0.4017489789174971	0.5197062953734974	0.31867566552416554	0.4641749200964219	0.781297416405488	0.18044773170871942	0.45199905729948875	0.9923803909975893	0.12600730756301398	0.42003830305250256	1.0730486398056924	0.12408493470094192	0.4481636250675635	1.0904987889111362	0.13436793430308466	0.46429200630583256	1.090541936478028	-0.03279146249760244	0.41089615803119134	0.527706705838798	-0.03320693126498894	0.45016086615685164	0.7916743893626533	0.050463472043951255	0.4124653023549171	0.9813392432206047	0.13304119654783922	0.41039606721915983	1.0442344735276172	0.13224673505931728	0.4240127631643673	1.08363980206261	0.10549540625124326	0.46440916920111674	1.086046122582615
32	0.5333333333333333	0.24941127779722694	0.5672117106798386	0.9742946801121306	0.2434469222548183	0.682824104969841	1.3581478409732397	0.24833173248699758	0.8496902906253018	1.7573312705280835	0.2319135647475432	0.6649702791762857	1.8042317234933674	0.30342151364072323	0.7075742198366015	1.8035746563327877	0.23527493666300014	0.9651293083055436	1.8107026585479955	0.032399162326536196	0.6014460851199552	0.9883133145203282	0.04133207731085934	0.715622087090322	1.3756685119586411	0.0731320454166876	0.8893959309458737	1.7754940900770377	0.07788804370290214	0.6733174476200491	1.8017187443468088	0.028594731982320203	0.7466555643271094	1.8167858477741776	0.09309043258938626	0.9357469546644837	1.8218160940970658	0.12322908246465092	0.4146865835545679	0.43979199465950375	0.12491696445373535	0.2831585590715037	0.22216050054235031	0.11428614328037592	0.23819762061220062	0.36459673912372154	0.2837699842725937	0.40191540095151174	0.5196951184579258	0.31868407470566174	0.4643925589993028	0.7812593330526387	0.18003893335612794	0.4483310017036526	0.9924010441584914	0.12611235624066683	0.4207456748866876	1.0740423563266177	0.12283228957863618	0.4466530595248652	1.0905145623964312	0.134455334651224	0.4593965244832381	1.0915226807623872	-0.032782316490765684	0.4109367521978122	0.5276910544863835	-0.033205607806209514	0.45015923650000933	0.7915698855122624	0.04963592633603088	0.4077063110835316	0.9822681525428218	0.13083797606955724	0.409572971312008	1.0463296011735452	0.1306428071778718	0.42069257291193757	1.0838180633299255	0.10292966806918481	0.46324184538057717	1.0873514836069884
33	0.55	0.24941844872468785	0.5668684950269438	0.9743988051998838	0.24307965295547507	0.6822109766429877	1.3571516311830867	0.2483125773329849	0.8497533584217949	1.7573515086708131	0.23188718574537526	0.6648751751589578	1.8041439740628777	0.3026446783608677	0.7070239339011166	1.8031792678739518	0.2352637712355045	0.965200160250153	1.8103436263694381	0.03379724687984192	0.6014336767666786	0.9882093044576029	0.041971709299071486	0.7159573452213344	1.377947167393258	0.07282393624361698	0.8885264865411486	1.7746078423189346	0.07891815922696964	0.6693650252365126	1.8004877586991732	0.028590440469950774	0.7464788632311619	1.8167387486655227	0.09301272782587734	0.935484095511085	1.8218408293411246	0.12322554615171227	0.41463898146805245	0.4397030246386725	0.12492351066684249	0.28312331459664986	0.2221630967359335	0.11476766599101731	0.23993502383112764	0.36458949709042243	0.28385039032643866	0.40241763980366213	0.5199102699386372	0.3186004553024243	0.4650246910420278	0.7812850101819739	0.17961487587606617	0.4388652827174146	0.9919283079034522	0.12531181760315646	0.4208018950024647	1.0743038983813828	0.1213483067924219	0.4456743731751385	1.0906465986964657	0.1342615815801938	0.45139020587360645	1.0919552604140126	-0.03233445364356081	0.4112389329741684	0.5276173999211968	-0.033192708430881075	0.45015781214503797	0.7915555700869443	0.04953947569204225	0.4037594015538588	0.9834206463801323	0.12841151782603716	0.4066670262958244	1.0488820018700111	0.12874381118444983	0.41936185582177965	1.084285259027105	0.10091397473495786	0.4614769513491369	1.088551136021071
